<?xml version="1.0" encoding="UTF-8"?>
<svg version="1.1" xmlns="http://www.w3.org/2000/svg" width="1024" height="1024">
<path d="M0 0 C337.92 0 675.84 0 1024 0 C1024 337.92 1024 675.84 1024 1024 C686.08 1024 348.16 1024 0 1024 C0 686.08 0 348.16 0 0 Z " fill="#F1ECE0" transform="translate(0,0)"/>
<path d="M0 0 C14.52 0 29.04 0 44 0 C44 84.15 44 168.3 44 255 C29.48 255 14.96 255 0 255 C-0.33 249.06 -0.66 243.12 -1 237 C-1.928125 238.010625 -2.85625 239.02125 -3.8125 240.0625 C-18.27106474 254.46288138 -37.14617467 259.22614981 -56.9375 259.4375 C-66.87463758 259.40111724 -75.5764818 258.17795462 -85 255 C-86.37285156 254.566875 -86.37285156 254.566875 -87.7734375 254.125 C-107.62954439 247.10959315 -122.96828173 230.18829151 -131.875 211.5625 C-142.81189031 187.58667793 -144.36354743 154.74163811 -135.25244141 129.96728516 C-126.83368468 107.69814904 -111.87135247 89.77408698 -90.1015625 79.765625 C-69.77865269 70.86549434 -45.69705139 71.19389948 -25 79 C-16.26088103 82.4321625 -8.70899442 87.39665904 -2 94 C-2 94.66 -2 95.32 -2 96 C-1.34 96 -0.68 96 0 96 C0 64.32 0 32.64 0 0 Z " fill="#0D2334" transform="translate(594,327)"/>
<path d="M0 0 C18.41745561 14.47417166 29.77993141 36.32838842 33.1015625 59.4375 C33.9601897 76.1280285 34.64032572 93.49093009 29.1015625 109.4375 C28.72773438 110.58347656 28.35390625 111.72945312 27.96875 112.91015625 C19.86430435 135.85486165 4.02489619 152.99644244 -17.60473633 163.65014648 C-36.49193981 172.49716042 -58.22118754 173.42952611 -77.8984375 166.4375 C-87.84243099 162.39228811 -96.7536132 156.50423711 -103.8984375 148.4375 C-103.8984375 147.7775 -103.8984375 147.1175 -103.8984375 146.4375 C-104.5584375 146.4375 -105.2184375 146.4375 -105.8984375 146.4375 C-105.8984375 176.4675 -105.8984375 206.4975 -105.8984375 237.4375 C-120.4184375 237.4375 -134.9384375 237.4375 -149.8984375 237.4375 C-149.8984375 155.5975 -149.8984375 73.7575 -149.8984375 -10.5625 C-135.0484375 -10.5625 -120.1984375 -10.5625 -104.8984375 -10.5625 C-104.4034375 -2.1475 -104.4034375 -2.1475 -103.8984375 6.4375 C-102.8465625 5.2825 -101.7946875 4.1275 -100.7109375 2.9375 C-74.31242456 -23.22944704 -28.64585003 -21.22553948 0 0 Z " fill="#0D2435" transform="translate(294.8984375,416.5625)"/>
<path d="M0 0 C2.40511603 -0.00434267 4.80834539 -0.04067275 7.21313477 -0.07861328 C25.49591332 -0.212378 43.03420822 3.13016684 56.74633789 16.12060547 C70.80128828 31.22341278 75.57795613 48.85894163 75.78540039 69.04638672 C75.80481186 70.26250641 75.82422333 71.4786261 75.84422302 72.7315979 C75.89422052 76.03065177 75.93566884 79.32966349 75.97243118 82.62888718 C75.99643786 84.69169563 76.0240607 86.75442364 76.052948 88.81716919 C76.48459208 119.66763972 76.46692288 150.5178943 76.37133789 181.37060547 C61.85133789 181.37060547 47.33133789 181.37060547 32.37133789 181.37060547 C31.87633789 172.46060547 31.87633789 172.46060547 31.37133789 163.37060547 C30.42258789 164.54623047 29.47383789 165.72185547 28.49633789 166.93310547 C18.58831039 178.17414069 5.22098518 183.39047665 -9.51831055 184.60961914 C-30.29754038 185.52654927 -48.42509176 182.84120634 -64.44116211 168.30810547 C-74.79700945 157.33090728 -77.98773747 143.678126 -78.00366211 128.99560547 C-78.0281543 127.81482422 -78.05264648 126.63404297 -78.07788086 125.41748047 C-78.10228091 118.11373215 -77.28107077 112.72239656 -73.62866211 106.37060547 C-73.18264648 105.53529297 -72.73663086 104.69998047 -72.27709961 103.83935547 C-63.2377513 89.86441206 -49.46784095 82.37208223 -33.62866211 78.37060547 C-30.30938188 77.71206027 -26.98473409 77.23649358 -23.62866211 76.80810547 C-22.69948975 76.68298584 -21.77031738 76.55786621 -20.81298828 76.42895508 C-12.14762498 75.31812125 -3.44970088 74.69440152 5.27563477 74.28051758 C13.3799879 73.79214243 21.98064046 72.680572 27.99633789 66.80810547 C30.68887483 62.0349718 30.98015338 57.72818182 30.37133789 52.37060547 C28.53164805 46.25308261 24.85887461 41.60758175 19.37133789 38.37060547 C7.50904531 33.32482183 -2.60177683 33.06276875 -14.73803711 37.17529297 C-21.28673789 39.88326924 -24.6129128 43.90828551 -27.62866211 50.37060547 C-28.28866211 53.34060547 -28.94866211 56.31060547 -29.62866211 59.37060547 C-43.48866211 59.37060547 -57.34866211 59.37060547 -71.62866211 59.37060547 C-69.96940962 41.11882814 -63.79899906 26.36089058 -49.62866211 14.37060547 C-34.53751914 2.96022908 -18.37761318 -0.00369659 0 0 Z " fill="#0D2435" transform="translate(733.628662109375,400.62939453125)"/>
<path d="M0 0 C5.383125 0.0928125 5.383125 0.0928125 10.875 0.1875 C10.875 14.0475 10.875 27.9075 10.875 42.1875 C-1.9375 41.9375 -1.9375 41.9375 -5.90551758 41.82714844 C-16.73026907 41.72597491 -25.10963677 43.78870317 -33.125 51.1875 C-33.785 51.1875 -34.445 51.1875 -35.125 51.1875 C-35.39699219 51.76628906 -35.66898437 52.34507812 -35.94921875 52.94140625 C-37.11908127 55.17619345 -38.45511195 57.08720535 -39.9375 59.125 C-45.37089493 67.30830385 -48.23009419 75.62052636 -49.23974609 85.34326172 C-49.3226206 86.12090818 -49.40549511 86.89855465 -49.49088097 87.69976616 C-50.4089832 97.04013181 -50.47949562 106.38012159 -50.5390625 115.7578125 C-50.55783265 117.66023543 -50.57741008 119.56265055 -50.5977478 121.46505737 C-50.64845881 126.40658907 -50.68840567 131.34814758 -50.72589111 136.28979492 C-50.77346184 142.25407964 -50.83479081 148.21823777 -50.89373779 154.18241882 C-50.98120313 163.1840597 -51.05150001 172.1856856 -51.125 181.1875 C-65.315 181.1875 -79.505 181.1875 -94.125 181.1875 C-94.125 122.7775 -94.125 64.3675 -94.125 4.1875 C-79.605 4.1875 -65.085 4.1875 -50.125 4.1875 C-50.125 11.7775 -50.125 19.3675 -50.125 27.1875 C-49.465 27.1875 -48.805 27.1875 -48.125 27.1875 C-47.86074219 26.60613281 -47.59648437 26.02476562 -47.32421875 25.42578125 C-45.22488297 21.50747701 -42.11517943 18.44618534 -39.125 15.1875 C-38.57585937 14.56101562 -38.02671875 13.93453125 -37.4609375 13.2890625 C-27.64435611 2.63504763 -13.96008586 -0.34357987 0 0 Z " fill="#0D2436" transform="translate(440.125,400.8125)"/>
<path d="M0 0 C0.95519531 0.66128906 0.95519531 0.66128906 1.9296875 1.3359375 C12.48307904 9.450323 18.05454248 23.19729999 20 36 C21.61442104 54.59325002 18.40473868 71.1336926 6.25 85.8125 C-0.5470948 93.03602851 -8.48232335 96.67902271 -18 99 C-18.62648438 99.18175781 -19.25296875 99.36351562 -19.8984375 99.55078125 C-31.90221737 102.11664498 -44.35865518 99.11533865 -54.98828125 93.390625 C-66.92092522 85.49588635 -75.00538901 73.00796703 -78 59 C-79.64280287 37.96879696 -77.67164729 21.22517695 -63.75 4.75 C-47.10336383 -12.95268321 -19.40711586 -13.72698439 0 0 Z " fill="#F0EBDF" transform="translate(575,448)"/>
<path d="M0 0 C1.45647949 0.01244751 1.45647949 0.01244751 2.94238281 0.02514648 C17.06638439 0.3559938 28.11504786 4.76753862 38.0625 15.0625 C48.46488681 27.77107634 51.69443579 44.44374036 50.3125 60.4375 C48.18684229 75.48654045 42.64861512 88.6182117 30.875 98.58203125 C18.47790366 107.55858729 5.26029193 109.99267115 -9.6875 108.4375 C-17.74759877 106.53089796 -24.54874008 102.96644933 -30.6875 97.4375 C-31.30238281 96.8909375 -31.91726562 96.344375 -32.55078125 95.78125 C-42.4091445 86.49285636 -47.55417758 73.74824821 -47.9609375 60.2265625 C-48.40484081 41.21141503 -45.66366203 27.07052243 -32.375 12.6875 C-23.13252284 3.90092978 -12.56848506 -0.13812717 0 0 Z " fill="#F1EBE0" transform="translate(235.6875,439.5625)"/>
<path d="M0 0 C14.19 0 28.38 0 43 0 C43 58.41 43 116.82 43 177 C28.81 177 14.62 177 0 177 C0 118.59 0 60.18 0 0 Z " fill="#0C2436" transform="translate(832,405)"/>
<path d="M0 0 C0.33 0 0.66 0 1 0 C1.3572341 15.63891501 0.95906181 30.33309439 -9.17578125 43.1484375 C-16.68383432 50.76903098 -27.25903682 54.31845455 -37.75195312 54.51904297 C-38.63818359 54.51275879 -39.52441406 54.50647461 -40.4375 54.5 C-41.82291992 54.49250732 -41.82291992 54.49250732 -43.23632812 54.48486328 C-51.04930439 54.28442422 -56.76665596 52.88734957 -62.625 47.5078125 C-67.92096374 41.70030681 -68.51640492 35.79519721 -68.37109375 28.23046875 C-67.72347147 22.59274634 -65.53487203 19.09953531 -61.203125 15.51171875 C-50.65008861 8.35676008 -38.05244636 7.53566036 -25.6796875 6.57421875 C-24.76026367 6.49888916 -23.84083984 6.42355957 -22.89355469 6.34594727 C-21.09586418 6.20248078 -19.29696188 6.07322839 -17.49707031 5.96069336 C-11.60922619 5.49257257 -4.38539822 4.38539822 0 0 Z " fill="#F0EBE0" transform="translate(766,497)"/>
<path d="M0 0 C7.66649449 4.66542229 12.48251977 11.38183673 15.03515625 19.890625 C15.97155469 29.25460941 14.54420247 37.59296246 8.66015625 45.265625 C2.96831576 51.32139391 -5.49847908 54.50197041 -13.65234375 54.828125 C-21.89550507 54.75452535 -28.2723944 51.98391401 -34.65625 46.8203125 C-40.13557616 41.13499664 -42.84716529 33.12290829 -43.21484375 25.328125 C-42.85540585 17.77992911 -39.87228669 10.49973146 -34.65625 4.99609375 C-24.48241194 -3.41728139 -12.11048522 -5.59248423 0 0 Z " fill="#0D2435" transform="translate(865.71484375,330.609375)"/>
<path d="M0 0 C14.19 0 28.38 0 43 0 C43 58.41 43 116.82 43 177 C28.81 177 14.62 177 0 177 C0 118.59 0 60.18 0 0 Z M2 2 C1.86790057 18.63293415 1.73719711 35.26587746 1.60884857 51.8988409 C1.54917264 59.62698493 1.48893067 67.35512368 1.42724609 75.08325195 C1.35597039 84.02293578 1.28621025 92.96263027 1.21875 101.90234375 C1.21327274 102.62818019 1.20779549 103.35401664 1.20215225 104.10184813 C1.02233861 128.0685558 0.95371937 152.03241987 1 176 C14.53 176 28.06 176 42 176 C42 118.58 42 61.16 42 2 C28.8 2 15.6 2 2 2 Z " fill="#03070F" transform="translate(832,405)"/>
<path d="M0 0 C6.39037231 -0.02527062 12.78073183 -0.04283317 19.17114258 -0.05493164 C21.34692873 -0.05997308 23.52271147 -0.06680607 25.69848633 -0.07543945 C28.81853067 -0.08751338 31.93853038 -0.09323005 35.05859375 -0.09765625 C36.52733192 -0.10539818 36.52733192 -0.10539818 38.02574158 -0.11329651 C39.37702904 -0.11340981 39.37702904 -0.11340981 40.75561523 -0.11352539 C41.95141457 -0.11685631 41.95141457 -0.11685631 43.17137146 -0.12025452 C45 0 45 0 46 1 C46.0989339 2.95172861 46.12632284 4.90709374 46.12698364 6.86132812 C46.1298063 8.13907545 46.13262896 9.41682278 46.13553715 10.73328972 C46.133592 12.16594329 46.13154074 13.59859672 46.12939453 15.03125 C46.13072573 16.53385523 46.13248048 18.03646013 46.13462734 19.53906441 C46.13916176 23.65923167 46.13729595 27.77937461 46.13421178 31.89954233 C46.13233768 35.38241688 46.13397299 38.86528602 46.13566166 42.34816039 C46.14062085 52.62726301 46.13600474 62.9063474 46.12877274 73.18544769 C46.12477156 78.97049437 46.12292554 84.75554063 46.12130737 90.54058838 C46.10761068 133.73065204 46.0853966 176.92092365 45.59383392 220.10870361 C45.56246833 222.87779609 45.53277949 225.64690319 45.50323486 228.41601562 C45.45735136 232.62483984 45.4053877 236.83353792 45.34718513 241.04220963 C45.32699425 242.52639043 45.30818257 244.01059077 45.29089165 245.4948082 C45.26729407 247.45217078 45.23656103 249.40944367 45.20532227 251.36669922 C45.18977798 252.44184784 45.1742337 253.51699646 45.15821838 254.62472534 C45 257 45 257 44 258 C42.62940407 258.10312037 41.25360341 258.13848953 39.87915039 258.14526367 C38.56757713 258.15483345 38.56757713 258.15483345 37.22950745 258.16459656 C35.8029911 258.16626579 35.8029911 258.16626579 34.34765625 258.16796875 C33.37718857 258.17129715 32.40672089 258.17462555 31.40684509 258.17805481 C29.3497668 258.1831283 27.29268025 258.18546301 25.2355957 258.18530273 C22.07945256 258.18748826 18.92365929 258.20563691 15.76757812 258.22460938 C13.7734387 258.22754333 11.77929761 258.22952811 9.78515625 258.23046875 C8.83616959 258.23765427 7.88718292 258.24483978 6.90943909 258.25224304 C6.03190475 258.24916641 5.15437042 258.24608978 4.25024414 258.24291992 C3.4760463 258.24434494 2.70184845 258.24576996 1.90419006 258.24723816 C0 258 0 258 -2 256 C-2.30059943 253.63490639 -2.49515012 251.25558119 -2.625 248.875 C-2.69976563 247.59367188 -2.77453125 246.31234375 -2.8515625 244.9921875 C-2.90054688 244.00476563 -2.94953125 243.01734375 -3 242 C-3.99 242.99 -4.98 243.98 -6 245 C-6.66 244.67 -7.32 244.34 -8 244 C-6.85760183 242.66372225 -5.71098945 241.33104612 -4.5625 240 C-3.92441406 239.2575 -3.28632812 238.515 -2.62890625 237.75 C-2.09136719 237.1725 -1.55382812 236.595 -1 236 C-0.67 236 -0.34 236 0 236 C0 242.6 0 249.2 0 256 C14.52 256 29.04 256 44 256 C44 171.85 44 87.7 44 1 C29.48 1 14.96 1 0 1 C0 0.67 0 0.34 0 0 Z " fill="#F6F4EC" transform="translate(594,326)"/>
<path d="M0 0 C14.52 0 29.04 0 44 0 C44 7.92 44 15.84 44 24 C43.67 24 43.34 24 43 24 C43 16.74 43 9.48 43 2 C29.47 2 15.94 2 2 2 C2 59.42 2 116.84 2 176 C15.2 176 28.4 176 42 176 C42 147.62 42 119.24 42 90 C42.33 90 42.66 90 43 90 C43 118.71 43 147.42 43 177 C28.81 177 14.62 177 0 177 C0 118.59 0 60.18 0 0 Z " fill="#26282B" transform="translate(346,405)"/>
<path d="M0 0 C0.33 0 0.66 0 1 0 C1.495 2.97 1.495 2.97 2 6 C2.33 6 2.66 6 3 6 C3 26.46 3 46.92 3 68 C-11.52 68 -26.04 68 -41 68 C-40.67 61.4 -40.34 54.8 -40 48 C-39.34 48.33 -38.68 48.66 -38 49 C-38 54.28 -38 59.56 -38 65 C-25.46 65 -12.92 65 0 65 C-0.1197485 57.50680126 -0.24233314 50.01376394 -0.37231445 42.52075195 C-0.41567967 39.97065006 -0.45735356 37.42051884 -0.49731445 34.87036133 C-0.55497839 31.20905711 -0.61868425 27.54790078 -0.68359375 23.88671875 C-0.70030624 22.7428923 -0.71701874 21.59906586 -0.73423767 20.420578 C-0.7641555 18.82926811 -0.7641555 18.82926811 -0.79467773 17.20581055 C-0.81799416 15.80349434 -0.81799416 15.80349434 -0.84178162 14.37284851 C-0.90972708 11.85013487 -0.90972708 11.85013487 -2 9 C-1.34 9 -0.68 9 0 9 C0 6.03 0 3.06 0 0 Z " fill="#243644" transform="translate(807,514)"/>
<path d="M0 0 C0.33 0 0.66 0 1 0 C1.02332815 18.10607616 1.04097876 36.21214843 1.05181217 54.31823635 C1.05697531 62.72461384 1.06401834 71.13098201 1.07543945 79.53735352 C1.08538575 86.86167932 1.0918533 94.18599837 1.09408849 101.51033074 C1.09539569 105.39090787 1.09848212 109.2714657 1.10573006 113.15203667 C1.11248942 116.80039557 1.11461713 120.44872711 1.11310768 124.09709167 C1.11351637 126.08288419 1.118912 128.0686737 1.12442017 130.05445862 C1.1230455 131.2254007 1.12167084 132.39634277 1.12025452 133.60276794 C1.12117631 134.62687995 1.1220981 135.65099195 1.12304783 136.70613766 C1 139 1 139 0 140 C-1.37059593 140.10312037 -2.74639659 140.13848953 -4.12084961 140.14526367 C-4.99523178 140.15164352 -5.86961395 140.15802338 -6.77049255 140.16459656 C-8.1970089 140.16626579 -8.1970089 140.16626579 -9.65234375 140.16796875 C-10.62281143 140.17129715 -11.59327911 140.17462555 -12.59315491 140.17805481 C-14.6502332 140.1831283 -16.70731975 140.18546301 -18.7644043 140.18530273 C-21.92054744 140.18748826 -25.07634071 140.20563691 -28.23242188 140.22460938 C-30.2265613 140.22754333 -32.22070239 140.22952811 -34.21484375 140.23046875 C-35.16383041 140.23765427 -36.11281708 140.24483978 -37.09056091 140.25224304 C-37.96809525 140.24916641 -38.84562958 140.24608978 -39.74975586 140.24291992 C-40.5239537 140.24434494 -41.29815155 140.24576996 -42.09580994 140.24723816 C-44 140 -44 140 -46 138 C-46.30059943 135.63490639 -46.49515012 133.25558119 -46.625 130.875 C-46.69976563 129.59367188 -46.77453125 128.31234375 -46.8515625 126.9921875 C-46.90054688 126.00476563 -46.94953125 125.01734375 -47 124 C-47.99 124.99 -48.98 125.98 -50 127 C-50.66 126.67 -51.32 126.34 -52 126 C-50.85760183 124.66372225 -49.71098945 123.33104612 -48.5625 122 C-47.92441406 121.2575 -47.28632812 120.515 -46.62890625 119.75 C-46.09136719 119.1725 -45.55382812 118.595 -45 118 C-44.67 118 -44.34 118 -44 118 C-44 124.6 -44 131.2 -44 138 C-29.48 138 -14.96 138 0 138 C0 92.46 0 46.92 0 0 Z " fill="#FBFCF9" transform="translate(638,444)"/>
<path d="M0 0 C0.79719955 0.00222061 1.59439911 0.00444122 2.41575623 0.00672913 C3.31661453 0.00680466 4.21747284 0.00688019 5.14562988 0.00695801 C6.12478867 0.01211929 7.10394745 0.01728058 8.11277771 0.02259827 C9.11018478 0.02401321 10.10759186 0.02542816 11.13522339 0.02688599 C14.3348027 0.03250337 17.53431315 0.04505881 20.73387146 0.05775452 C22.89728191 0.06276728 25.06069345 0.06733057 27.22410583 0.07142639 C32.53988471 0.08247845 37.85562317 0.09923348 43.17137146 0.12025452 C43.17137146 0.45025452 43.17137146 0.78025452 43.17137146 1.12025452 C28.65137146 1.12025452 14.13137146 1.12025452 -0.82862854 1.12025452 C-0.82862854 33.13025452 -0.82862854 65.14025452 -0.82862854 98.12025452 C-1.48862854 98.12025452 -2.14862854 98.12025452 -2.82862854 98.12025452 C-4.21800931 96.15877578 -5.55466964 94.15858876 -6.82862854 92.12025452 C-5.83862854 92.45025452 -4.84862854 92.78025452 -3.82862854 93.12025452 C-3.81832108 91.96989212 -3.80801361 90.81952972 -3.7973938 89.63430786 C-3.6998377 78.81819792 -3.59712098 68.00214781 -3.48928928 57.18613529 C-3.43401325 51.62488903 -3.38058591 46.06363755 -3.33131409 40.50233459 C-3.28373939 35.14013361 -3.23139936 29.77799879 -3.17568779 24.41587639 C-3.15523289 22.36527074 -3.13652512 20.31464692 -3.11955452 18.26400948 C-3.09557966 15.40230331 -3.06551604 12.54072345 -3.03395081 9.67909241 C-3.02531761 8.3940834 -3.02531761 8.3940834 -3.01651001 7.08311462 C-2.92953193 0.19265227 -2.92953193 0.19265227 0 0 Z " fill="#E7E8E4" transform="translate(594.8286285400391,324.87974548339844)"/>
<path d="M0 0 C13.53 0 27.06 0 41 0 C41 0.33 41 0.66 41 1 C31.43 1.33 21.86 1.66 12 2 C11.67 2.66 11.34 3.32 11 4 C10.34 4 9.68 4 9 4 C8.67 6.64 8.34 9.28 8 12 C7.01 12.33 6.02 12.66 5 13 C4.01 12.01 3.02 11.02 2 10 C1.67 20.56 1.34 31.12 1 42 C0.67 42 0.34 42 0 42 C0 28.14 0 14.28 0 0 Z " fill="#122B3D" transform="translate(348,407)"/>
<path d="M0 0 C1.32 0 2.64 0 4 0 C5.125 6.625 5.125 6.625 4 10 C4.63808594 10.53109375 5.27617188 11.0621875 5.93359375 11.609375 C6.75988281 12.31578125 7.58617187 13.0221875 8.4375 13.75 C9.26121094 14.44609375 10.08492187 15.1421875 10.93359375 15.859375 C13.01296451 18.01343015 13.63867326 19.08310781 14 22 C13.34 21.29875 12.68 20.5975 12 19.875 C2.22123332 10.26012327 -7.45841858 7.75958581 -21 7 C-21 6.67 -21 6.34 -21 6 C-14.73 5.67 -8.46 5.34 -2 5 C-1.67 3.68 -1.34 2.36 -1 1 C-0.67 0.67 -0.34 0.34 0 0 Z " fill="#0C1B26" transform="translate(750,427)"/>
<path d="M0 0 C0.94784216 2.5237725 1.15915069 3.61942227 0.1015625 6.1484375 C-4.7551139 13.47199714 -11.15574293 19.19504958 -20 21 C-23.34121722 21.14110721 -26.65852869 21.11886657 -30 21 C-29.360625 20.71125 -28.72125 20.4225 -28.0625 20.125 C-25.84793921 19.17176549 -25.84793921 19.17176549 -25 17 C-24.34 17 -23.68 17 -23 17 C-22.67 16.01 -22.34 15.02 -22 14 C-22 15.32 -22 16.64 -22 18 C-15.4218991 17.40593157 -15.4218991 17.40593157 -10 14 C-9.61116709 11.24999332 -9.82226191 8.79937492 -10 6 C-9.67 5.34 -9.34 4.68 -9 4 C-6.36 4.33 -3.72 4.66 -1 5 C-0.67 3.35 -0.34 1.7 0 0 Z " fill="#0F202E" transform="translate(878,364)"/>
<path d="M0 0 C0.33 0 0.66 0 1 0 C1.78896639 8.05862833 2.13815029 16.01451752 2.09765625 24.109375 C2.0962413 25.20219788 2.09482635 26.29502075 2.09336853 27.42095947 C2.08783294 30.86400249 2.07529306 34.3069771 2.0625 37.75 C2.05747666 40.10416572 2.05291522 42.45833247 2.04882812 44.8125 C2.03788473 50.54168946 2.02121234 56.27083984 2 62 C1.67 62 1.34 62 1 62 C0.67 57.71 0.34 53.42 0 49 C-0.33 49 -0.66 49 -1 49 C-1.0252689 42.18238106 -1.04283244 35.36477411 -1.05493164 28.54711914 C-1.05997333 26.22582549 -1.06680651 23.90453503 -1.07543945 21.58325195 C-1.08751225 18.25471205 -1.09322979 14.92621398 -1.09765625 11.59765625 C-1.10281754 10.55287613 -1.10797882 9.50809601 -1.11329651 8.43165588 C-1.11337204 7.47073532 -1.11344757 6.50981476 -1.11352539 5.51977539 C-1.115746 4.66928116 -1.11796661 3.81878693 -1.12025452 2.94252014 C-1 1 -1 1 0 0 Z " fill="#E6E4DE" transform="translate(810,471)"/>
<path d="M0 0 C0.33 0 0.66 0 1 0 C1 5.94 1 11.88 1 18 C14.86 18 28.72 18 43 18 C43 18.66 43 19.32 43 20 C28.48 20 13.96 20 -1 20 C-0.67 13.4 -0.34 6.8 0 0 Z " fill="#2A2D32" transform="translate(767,562)"/>
<path d="M0 0 C0.33 0 0.66 0 1 0 C1 1.98 1 3.96 1 6 C-12.86 6 -26.72 6 -41 6 C-40.67 4.68 -40.34 3.36 -40 2 C-40 2.66 -40 3.32 -40 4 C-27.13 4 -14.26 4 -1 4 C-0.67 2.68 -0.34 1.36 0 0 Z " fill="#282D31" transform="translate(703,454)"/>
<path d="M0 0 C1.5625 1.1875 1.5625 1.1875 3 3 C2.67 4.65 2.34 6.3 2 8 C5.63 7.67 9.26 7.34 13 7 C5.91377456 10.54311272 -1.10307381 10.18276679 -8.875 10.1875 C-9.92558594 10.19974609 -10.97617187 10.21199219 -12.05859375 10.22460938 C-18.07078003 10.23589633 -23.24330293 9.75475224 -29 8 C-29 7.67 -29 7.34 -29 7 C-20.09 7.66 -11.18 8.32 -2 9 C-2.33 7.35 -2.66 5.7 -3 4 C-2.01 3.67 -1.02 3.34 0 3 C0 2.01 0 1.02 0 0 Z " fill="#0B151E" transform="translate(546,576)"/>
<path d="M0 0 C0.33 0 0.66 0 1 0 C1.06058594 1.20398438 1.12117187 2.40796875 1.18359375 3.6484375 C1.26799732 5.22397077 1.35264541 6.79949096 1.4375 8.375 C1.47681641 9.1690625 1.51613281 9.963125 1.55664062 10.78125 C1.68893404 15.02601221 1.68893404 15.02601221 3 19 C3.99 19 4.98 19 6 19 C5.67 20.32 5.34 21.64 5 23 C4.34 23 3.68 23 3 23 C1.68003118 25.63993764 1.92022356 27.5716886 1.97265625 30.5234375 C1.98490234 31.626875 1.99714844 32.7303125 2.00976562 33.8671875 C2.04480539 36.19798061 2.08384118 38.52871722 2.12695312 40.859375 C2.14338867 42.51839844 2.14338867 42.51839844 2.16015625 44.2109375 C2.17699463 45.22462402 2.19383301 46.23831055 2.21118164 47.28271484 C2 50 2 50 0 54 C0 36.18 0 18.36 0 0 Z " fill="#102B3D" transform="translate(834,415)"/>
<path d="M0 0 C0.66 0.33 1.32 0.66 2 1 C-0.18376766 2.13277268 -2.37157128 3.25622789 -4.5625 4.375 C-5.17158203 4.69210937 -5.78066406 5.00921875 -6.40820312 5.3359375 C-16.38317286 10.40258879 -16.38317286 10.40258879 -21.4375 9.625 C-21.953125 9.41875 -22.46875 9.2125 -23 9 C-22.525625 8.54625 -22.05125 8.0925 -21.5625 7.625 C-19.90972192 6.06741796 -19.90972192 6.06741796 -19 4 C-18.34 4 -17.68 4 -17 4 C-16.67 3.01 -16.34 2.02 -16 1 C-14.35 1.33 -12.7 1.66 -11 2 C-11 2.99 -11 3.98 -11 5 C-10.22914063 4.62746094 -9.45828125 4.25492188 -8.6640625 3.87109375 C-7.66117187 3.39800781 -6.65828125 2.92492187 -5.625 2.4375 C-4.62726563 1.96183594 -3.62953125 1.48617187 -2.6015625 0.99609375 C-1.74304688 0.66738281 -0.88453125 0.33867188 0 0 Z " fill="#0C1924" transform="translate(283,575)"/>
<path d="M0 0 C2 3 2 3 2 7 C0.35 7.33 -1.3 7.66 -3 8 C-3.33 9.32 -3.66 10.64 -4 12 C-6 11 -6 11 -7 9 C-8.98 10.98 -10.96 12.96 -13 15 C-13.66 14.67 -14.32 14.34 -15 14 C-14.31164062 13.34644531 -14.31164062 13.34644531 -13.609375 12.6796875 C-9.83645414 9.0177349 -6.7376848 5.48980308 -4 1 C-3.34 1.33 -2.68 1.66 -2 2 C-2.33 2.99 -2.66 3.98 -3 5 C-2.01 3.35 -1.02 1.7 0 0 Z " fill="#091926" transform="translate(282,523)"/>
<path d="M0 0 C0.33 0.66 0.66 1.32 1 2 C-1.2129709 5.31945635 -3.0602945 7.17435439 -6.6875 8.6875 C-12.45130863 11.28175662 -16.05618977 16.21630426 -20 21 C-20 16.06687683 -16.3152848 13.40911361 -13 10 C-8.96577561 6.15606921 -4.94880901 2.62905479 0 0 Z " fill="#0E1821" transform="translate(494,412)"/>
<path d="M0 0 C0.33 0 0.66 0 1 0 C1 7.59 1 15.18 1 23 C-4.61 23 -10.22 23 -16 23 C-16 22.67 -16 22.34 -16 22 C-15.38511719 21.97421875 -14.77023438 21.9484375 -14.13671875 21.921875 C-9.00745409 21.7185352 -9.00745409 21.7185352 -4.9375 18.9375 C-4.628125 18.298125 -4.31875 17.65875 -4 17 C-3.34 17.33 -2.68 17.66 -2 18 C-2.33 18.99 -2.66 19.98 -3 21 C-2.01 21 -1.02 21 0 21 C0 14.07 0 7.14 0 0 Z " fill="#132D41" transform="translate(187,630)"/>
<path d="M0 0 C0.66 0.33 1.32 0.66 2 1 C1.28972656 1.42410156 0.57945312 1.84820312 -0.15234375 2.28515625 C-5.38282522 5.33769934 -5.38282522 5.33769934 -8.88671875 10.0234375 C-9.20121787 12.12322322 -9.20121787 12.12322322 -9 15 C-10.65 15.66 -12.3 16.32 -14 17 C-14 17.99 -14 18.98 -14 20 C-14.66 20 -15.32 20 -16 20 C-13.88218619 11.80740446 -10.59584381 5.98402549 -3.25 1.5 C-2.1775 1.005 -1.105 0.51 0 0 Z " fill="#0D1821" transform="translate(840,330)"/>
<path d="M0 0 C1.5625 1.25 1.5625 1.25 3 3 C2.6875 5.1875 2.6875 5.1875 2 7 C1.34 7 0.68 7 0 7 C0 8.32 0 9.64 0 11 C0.66 11 1.32 11 2 11 C0.25 14.875 0.25 14.875 -2 16 C-3.26237731 13.47524538 -3.09856404 11.68799534 -3.0625 8.875 C-3.05347656 7.96492188 -3.04445313 7.05484375 -3.03515625 6.1171875 C-3.02355469 5.41851562 -3.01195312 4.71984375 -3 4 C-2.01 3.67 -1.02 3.34 0 3 C0 2.01 0 1.02 0 0 Z " fill="#1D2C37" transform="translate(826,347)"/>
<path d="M0 0 C-1.01320313 0.25523437 -1.01320313 0.25523437 -2.046875 0.515625 C-2.93890625 0.75796875 -3.8309375 1.0003125 -4.75 1.25 C-6.07257812 1.59804688 -6.07257812 1.59804688 -7.421875 1.953125 C-10.1311508 2.83378809 -10.1311508 2.83378809 -11.90625 5.125 C-14 7 -14 7 -17.234375 7.171875 C-18.39453125 7.03265625 -19.5546875 6.8934375 -20.75 6.75 C-21.92046875 6.62109375 -23.0909375 6.4921875 -24.296875 6.359375 C-25.18890625 6.24078125 -26.0809375 6.1221875 -27 6 C-27 5.67 -27 5.34 -27 5 C-22.71 4.34 -18.42 3.68 -14 3 C-14 2.34 -14 1.68 -14 1 C-12.41913952 0.63495397 -10.83516093 0.28339494 -9.25 -0.0625 C-7.92742188 -0.35833984 -7.92742188 -0.35833984 -6.578125 -0.66015625 C-4.01320972 -0.99825872 -2.42908361 -0.81158635 0 0 Z " fill="#091A28" transform="translate(756,474)"/>
<path d="M0 0 C0.66 0 1.32 0 2 0 C2 1.32 2 2.64 2 4 C0.77023437 4.50660156 0.77023437 4.50660156 -0.484375 5.0234375 C-1.56203125 5.46945312 -2.6396875 5.91546875 -3.75 6.375 C-4.81734375 6.81585938 -5.8846875 7.25671875 -6.984375 7.7109375 C-9.37555926 8.73307585 -11.69383183 9.80213595 -14 11 C-14.33 9.02 -14.66 7.04 -15 5 C-11.94523787 4.33177078 -8.91609185 3.85614988 -5.8125 3.5 C-2.2036869 3.23813952 -2.2036869 3.23813952 0 2 C0 1.34 0 0.68 0 0 Z " fill="#111E2B" transform="translate(532,436)"/>
<path d="M0 0 C1.41152344 -0.02126953 1.41152344 -0.02126953 2.8515625 -0.04296875 C5.375 0.1875 5.375 0.1875 8.375 2.1875 C5.46255537 3.64372232 2.67201193 3.65710887 -0.5625 3.9375 C-1.80902344 4.05609375 -3.05554688 4.1746875 -4.33984375 4.296875 C-7.625 4.1875 -7.625 4.1875 -9.56640625 2.703125 C-9.91574219 2.20296875 -10.26507812 1.7028125 -10.625 1.1875 C-7.03614625 0.37185142 -3.67914195 0.02533844 0 0 Z " fill="#DCDBD5" transform="translate(734.625,433.8125)"/>
<path d="M0 0 C4.62 0 9.24 0 14 0 C13.01 1.98 12.02 3.96 11 6 C8.36 6 5.72 6 3 6 C3.66 4.68 4.32 3.36 5 2 C3.35 1.67 1.7 1.34 0 1 C0 0.67 0 0.34 0 0 Z " fill="#0A1925" transform="translate(433,401)"/>
<path d="M0 0 C0.02716824 2.54173977 0.04691969 5.08318415 0.0625 7.625 C0.07087891 8.33785156 0.07925781 9.05070312 0.08789062 9.78515625 C0.10710296 13.97344438 -0.1732673 17.8728462 -1 22 C-1.66 22 -2.32 22 -3 22 C-2.505 13.09 -2.505 13.09 -2 4 C-3.32 4.33 -4.64 4.66 -6 5 C-1.125 0 -1.125 0 0 0 Z " fill="#F8F8F5" transform="translate(767,497)"/>
<path d="M0 0 C0.66 0.33 1.32 0.66 2 1 C2.40729228 3.32156597 2.74438677 5.6568787 3 8 C1.68 8.33 0.36 8.66 -1 9 C-1.103125 9.928125 -1.20625 10.85625 -1.3125 11.8125 C-2.03227796 15.14965236 -2.57142872 15.83186532 -5 18 C-4.35702496 15.37426939 -3.71075589 12.74942697 -3.0625 10.125 C-2.88009766 9.37863281 -2.69769531 8.63226562 -2.50976562 7.86328125 C-1.11328125 2.2265625 -1.11328125 2.2265625 0 0 Z " fill="#141E28" transform="translate(285,504)"/>
<path d="M0 0 C0 0.33 0 0.66 0 1 C-1.670625 1.2165625 -1.670625 1.2165625 -3.375 1.4375 C-6.82142047 1.78372035 -6.82142047 1.78372035 -9 3 C-11.71760108 3.07181821 -14.40859388 3.09299506 -17.125 3.0625 C-17.87910156 3.05798828 -18.63320313 3.05347656 -19.41015625 3.04882812 C-21.27347127 3.03703499 -23.13674555 3.01909942 -25 3 C-17.48021522 -1.12916754 -8.33574825 -0.12694033 0 0 Z M-13 3 C-11.68 3.33 -10.36 3.66 -9 4 C-9.66 4.66 -10.32 5.32 -11 6 C-11 5.34 -11 4.68 -11 4 C-11.66 3.67 -12.32 3.34 -13 3 Z " fill="#060D15" transform="translate(728,477)"/>
<path d="M0 0 C0.33 0 0.66 0 1 0 C1.33 1.98 1.66 3.96 2 6 C4.97 6.495 4.97 6.495 8 7 C7.67 8.32 7.34 9.64 7 11 C6.030625 11.12375 5.06125 11.2475 4.0625 11.375 C3.051875 11.58125 2.04125 11.7875 1 12 C0.67 12.66 0.34 13.32 0 14 C0 9.38 0 4.76 0 0 Z M8 8 C10 9 10 9 10 9 Z " fill="#112A3D" transform="translate(348,564)"/>
<path d="M0 0 C0.7020474 2.4520038 1.04830667 3.77658166 0.5 6.3125 C-0.13575897 9.72970447 0.3999234 12.59956595 1 16 C0.34 16 -0.32 16 -1 16 C-1.33 16.66 -1.66 17.32 -2 18 C-3 17 -3 17 -3.25 13.5 C-3.21483269 8.64691071 -1.74378145 4.48400943 0 0 Z " fill="#142029" transform="translate(458,461)"/>
<path d="M0 0 C0.33 1.32 0.66 2.64 1 4 C5.8485083 3.52465605 8.90304204 2.57523072 13 0 C13.66 0.33 14.32 0.66 15 1 C7.55063221 6.32097699 1.94694737 7.31827086 -7 7 C-6.360625 6.71125 -5.72125 6.4225 -5.0625 6.125 C-2.84793921 5.17176549 -2.84793921 5.17176549 -2 3 C-1.34 3 -0.68 3 0 3 C0 2.01 0 1.02 0 0 Z " fill="#060F17" transform="translate(855,378)"/>
<path d="M0 0 C3.93673644 1.31224548 6.22719294 2.91910327 9 6 C7.68 5.67 6.36 5.34 5 5 C4.67 6.65 4.34 8.3 4 10 C1.525 9.01 1.525 9.01 -1 8 C-0.649375 7.05125 -0.29875 6.1025 0.0625 5.125 C1.35026777 2.12939828 1.35026777 2.12939828 0 0 Z " fill="#0B1C2A" transform="translate(205,538)"/>
<path d="M0 0 C3 2 3 2 3.73046875 5.0390625 C3.88128906 6.22242188 4.03210938 7.40578125 4.1875 8.625 C4.34605469 9.81351563 4.50460937 11.00203125 4.66796875 12.2265625 C4.77753906 13.14179687 4.88710938 14.05703125 5 15 C4.01 15.33 3.02 15.66 2 16 C1.855625 15.236875 1.71125 14.47375 1.5625 13.6875 C1.0367406 10.91827092 1.0367406 10.91827092 0 8 C-0.12781786 5.32605036 -0.04391871 2.67904143 0 0 Z " fill="#E5E3DB" transform="translate(452,508)"/>
<path d="M0 0 C0.33 0 0.66 0 1 0 C1.07347656 1.74023438 1.07347656 1.74023438 1.1484375 3.515625 C1.56413521 12.47280657 2.22028967 21.18784205 4 30 C1.78631706 27.78631706 0.13447079 26.06983375 -0.265625 22.88671875 C-0.25166986 20.92253213 -0.13286356 18.9597375 0 17 C-0.66 16.67 -1.32 16.34 -2 16 C-1.67 15.67 -1.34 15.34 -1 15 C-0.76346477 12.47403741 -0.57826308 9.96892793 -0.4375 7.4375 C-0.39431641 6.72658203 -0.35113281 6.01566406 -0.30664062 5.28320312 C-0.20028223 3.52238088 -0.09961154 1.7612168 0 0 Z " fill="#122C3F" transform="translate(494,485)"/>
<path d="M0 0 C0 0.99 0 1.98 0 3 C-8.58 2.34 -17.16 1.68 -26 1 C-26 0.67 -26 0.34 -26 0 C-17.2478303 -1.36752652 -8.77387981 -0.70757095 0 0 Z " fill="#E0E1DE" transform="translate(558,400)"/>
<path d="M0 0 C0 3.90838866 -1.50567876 5.11594107 -4 8 C-3.01 8.33 -2.02 8.66 -1 9 C-3.97 10.32 -6.94 11.64 -10 13 C-8.65515286 8.95838045 -6.9494838 6.61321846 -3.875 3.6875 C-3.15054688 2.99011719 -2.42609375 2.29273438 -1.6796875 1.57421875 C-1.12539063 1.05472656 -0.57109375 0.53523438 0 0 Z " fill="#0A141E" transform="translate(683,416)"/>
<path d="M0 0 C0.66 0.33 1.32 0.66 2 1 C2.33 1.99 2.66 2.98 3 4 C-5.58 4 -14.16 4 -23 4 C-23 3.67 -23 3.34 -23 3 C-15.74 3 -8.48 3 -1 3 C-0.67 2.01 -0.34 1.02 0 0 Z " fill="#061D33" transform="translate(633,577)"/>
<path d="M0 0 C1.21236328 0.01353516 1.21236328 0.01353516 2.44921875 0.02734375 C3.37154297 0.04474609 3.37154297 0.04474609 4.3125 0.0625 C2.9925 0.3925 1.6725 0.7225 0.3125 1.0625 C0.3125 1.7225 0.3125 2.3825 0.3125 3.0625 C-1.9975 3.0625 -4.3075 3.0625 -6.6875 3.0625 C-7.0175 4.3825 -7.3475 5.7025 -7.6875 7.0625 C-8.3475 7.0625 -9.0075 7.0625 -9.6875 7.0625 C-8.875 4.125 -8.875 4.125 -7.6875 1.0625 C-4.80538698 0.10179566 -2.98899956 -0.04331883 0 0 Z " fill="#0A1926" transform="translate(717.6875,401.9375)"/>
<path d="M0 0 C3.63 0 7.26 0 11 0 C8 2 8 2 6 2 C6 3.32 6 4.64 6 6 C5.01 6.33 4.02 6.66 3 7 C2.814375 5.824375 2.814375 5.824375 2.625 4.625 C2.20882007 1.85942178 2.20882007 1.85942178 0 0 Z " fill="#071723" transform="translate(240,401)"/>
<path d="M0 0 C4.29 0.33 8.58 0.66 13 1 C11.35 2.32 9.7 3.64 8 5 C7.67 4.34 7.34 3.68 7 3 C4.69 3 2.38 3 0 3 C0 2.01 0 1.02 0 0 Z " fill="#1C2F3F" transform="translate(428,401)"/>
<path d="M0 0 C0 2.62113708 -0.31292445 4.50935112 -1 7 C-1.99 6.67 -2.98 6.34 -4 6 C-5.32 7.32 -6.64 8.64 -8 10 C-8.66 9.67 -9.32 9.34 -10 9 C-8.89902432 7.87187697 -7.79408444 6.74762189 -6.6875 5.625 C-6.07261719 4.99851562 -5.45773437 4.37203125 -4.82421875 3.7265625 C-3 2 -3 2 0 0 Z " fill="#0B141E" transform="translate(675,490)"/>
<path d="M0 0 C0 0.99 0 1.98 0 3 C-3.63 3.33 -7.26 3.66 -11 4 C-8 0 -8 0 -6.0625 -0.8125 C-3.79631016 -1.01851726 -2.15577438 -0.69292748 0 0 Z " fill="#1B2D3A" transform="translate(231,403)"/>
<path d="M0 0 C7.42857143 -0.14285714 7.42857143 -0.14285714 11 1 C10.67 1.66 10.34 2.32 10 3 C9.34 3 8.68 3 8 3 C8 3.66 8 4.32 8 5 C6.68 5.33 5.36 5.66 4 6 C3.67 5.01 3.34 4.02 3 3 C3.33 2.34 3.66 1.68 4 1 C2.68 0.67 1.36 0.34 0 0 Z " fill="#07131E" transform="translate(753,402)"/>
<path d="M0 0 C0.66 0.33 1.32 0.66 2 1 C-0.97 3.97 -3.94 6.94 -7 10 C-7 8.33333333 -7 6.66666667 -7 5 C-6.01 5 -5.02 5 -4 5 C-3.8453125 4.0409375 -3.8453125 4.0409375 -3.6875 3.0625 C-3.460625 2.381875 -3.23375 1.70125 -3 1 C-2.01 0.67 -1.02 0.34 0 0 Z " fill="#09121C" transform="translate(206,448)"/>
<path d="M0 0 C0.33 0 0.66 0 1 0 C1.06058594 1.04800781 1.12117188 2.09601563 1.18359375 3.17578125 C1.26801738 4.55470048 1.35266447 5.93360605 1.4375 7.3125 C1.47681641 8.00279297 1.51613281 8.69308594 1.55664062 9.40429688 C1.74927415 12.47161535 2.02322717 15.06968152 3 18 C2.01 18 1.02 18 0 18 C0 12.06 0 6.12 0 0 Z " fill="#E6E0D4" transform="translate(392,406)"/>
<path d="M0 0 C2.64 0 5.28 0 8 0 C7.67 1.98 7.34 3.96 7 6 C6.01 5.34 5.02 4.68 4 4 C4 3.01 4 2.02 4 1 C2.68 0.67 1.36 0.34 0 0 Z " fill="#071727" transform="translate(252,402)"/>
<path d="M0 0 C-0.66 2.97 -1.32 5.94 -2 9 C-2.66 9 -3.32 9 -4 9 C-4 6.36 -4 3.72 -4 1 C-2 0 -2 0 0 0 Z " fill="#0F1B26" transform="translate(191,472)"/>
<path d="M0 0 C0.99 0.66 1.98 1.32 3 2 C3.29296875 4.1640625 3.29296875 4.1640625 3.1875 6.625 C3.16042969 7.44226563 3.13335938 8.25953125 3.10546875 9.1015625 C3.07066406 9.72804688 3.03585937 10.35453125 3 11 C0.52620632 8.52620632 0.03347078 6.3071065 -1 3 C-1.33 2.34 -1.66 1.68 -2 1 C-1.34 0.67 -0.68 0.34 0 0 Z " fill="#142A3C" transform="translate(658,540)"/>
<path d="M0 0 C0.99 0.33 1.98 0.66 3 1 C2.67 3.97 2.34 6.94 2 10 C1.34 9.67 0.68 9.34 0 9 C0 6.03 0 3.06 0 0 Z " fill="#213140" transform="translate(325,475)"/>
<path d="M0 0 C6.15234375 0.5859375 6.15234375 0.5859375 8 1 C8.33 1.66 8.66 2.32 9 3 C5.67465243 4.10844919 3.37817425 3.84454356 0 3 C0 2.01 0 1.02 0 0 Z " fill="#203241" transform="translate(718,401)"/>
<path d="M0 0 C0.99773438 0.02320313 1.99546875 0.04640625 3.0234375 0.0703125 C4.52777344 0.09738281 4.52777344 0.09738281 6.0625 0.125 C6.83335937 0.14820313 7.60421875 0.17140625 8.3984375 0.1953125 C8.3984375 0.5253125 8.3984375 0.8553125 8.3984375 1.1953125 C7.2640625 1.3190625 6.1296875 1.4428125 4.9609375 1.5703125 C3.1975 1.8796875 3.1975 1.8796875 1.3984375 2.1953125 C1.0684375 2.8553125 0.7384375 3.5153125 0.3984375 4.1953125 C-2.0765625 3.2053125 -2.0765625 3.2053125 -4.6015625 2.1953125 C-2.6015625 0.1953125 -2.6015625 0.1953125 0 0 Z " fill="#0C1218" transform="translate(847.6015625,327.8046875)"/>
<path d="M0 0 C3.7952131 1.49097658 5.61042731 3.75700849 8 7 C7.67 7.66 7.34 8.32 7 9 C5.82737096 7.88121617 4.66204862 6.75476949 3.5 5.625 C2.8503125 4.99851562 2.200625 4.37203125 1.53125 3.7265625 C0 2 0 2 0 0 Z " fill="#232A2E" transform="translate(476,558)"/>
<path d="M0 0 C-3.45245824 2.30163882 -4.94738713 2.34490322 -9 2 C-9.66 1.34 -10.32 0.68 -11 0 C-7.18243176 -1.37432457 -3.92744671 -0.67975039 0 0 Z " fill="#E8E4DA" transform="translate(539,441)"/>
<path d="M0 0 C2.97 0.495 2.97 0.495 6 1 C6.33 1.99 6.66 2.98 7 4 C4.69 3.67 2.38 3.34 0 3 C0 2.01 0 1.02 0 0 Z " fill="#E6E4DE" transform="translate(712,547)"/>
<path d="M0 0 C1.98 0 3.96 0 6 0 C6 0.66 6 1.32 6 2 C6.66 2.33 7.32 2.66 8 3 C5.13822943 4.43088528 3.06624227 3.59991697 0 3 C0 2.01 0 1.02 0 0 Z " fill="#DAD8CE" transform="translate(725,505)"/>
<path d="M0 0 C0.391875 0.495 0.78375 0.99 1.1875 1.5 C3.55091715 3.45593143 5.01435003 3.24207973 8 3 C6.25 4.5625 6.25 4.5625 4 6 C1.75 5.6875 1.75 5.6875 0 5 C0 3.35 0 1.7 0 0 Z " fill="#071522" transform="translate(712,433)"/>
<path d="M0 0 C0.66 0.33 1.32 0.66 2 1 C1.01 1.33 0.02 1.66 -1 2 C-1.73323796 4.01508358 -1.73323796 4.01508358 -2 6 C-2.99 5.67 -3.98 5.34 -5 5 C-4 2 -4 2 -2.0625 0.75 C-1.381875 0.5025 -0.70125 0.255 0 0 Z " fill="#0C1823" transform="translate(501,408)"/>
<path d="M0 0 C0.99 0.33 1.98 0.66 3 1 C3 1.99 3 2.98 3 4 C1.02 4.66 -0.96 5.32 -3 6 C-3 5.34 -3 4.68 -3 4 C-2.34 3.67 -1.68 3.34 -1 3 C-0.67 2.01 -0.34 1.02 0 0 Z " fill="#E5E3DE" transform="translate(256,539)"/>
<path d="M0 0 C0.33 0 0.66 0 1 0 C1.33 2.97 1.66 5.94 2 9 C0.68 8.67 -0.64 8.34 -2 8 C-1.33333333 5.33333333 -0.66666667 2.66666667 0 0 Z " fill="#1B3040" transform="translate(287,496)"/>
<path d="M0 0 C2 3 2 3 1.625 5.6875 C1.41875 6.450625 1.2125 7.21375 1 8 C0.34 7.67 -0.32 7.34 -1 7 C-0.67 4.69 -0.34 2.38 0 0 Z " fill="#E2E1DC" transform="translate(189,479)"/>
<path d="M0 0 C1.4606285 2.64738916 2 3.89448334 2 7 C1.01 7 0.02 7 -1 7 C-1.33 5.02 -1.66 3.04 -2 1 C-1.34 0.67 -0.68 0.34 0 0 Z " fill="#14293B" transform="translate(666,444)"/>
<path d="M0 0 C0.33 1.32 0.66 2.64 1 4 C-0.32 4.99 -1.64 5.98 -3 7 C-3.66 6.34 -4.32 5.68 -5 5 C-4.34 5 -3.68 5 -3 5 C-2.5359375 4.0409375 -2.5359375 4.0409375 -2.0625 3.0625 C-1 1 -1 1 0 0 Z " fill="#121E29" transform="translate(395,423)"/>
<path d="M0 0 C0.99 0.33 1.98 0.66 3 1 C1.68 2.32 0.36 3.64 -1 5 C-1.66 4.67 -2.32 4.34 -3 4 C-2.67 3.01 -2.34 2.02 -2 1 C-1.34 0.67 -0.68 0.34 0 0 Z " fill="#101D2A" transform="translate(212,407)"/>
</svg>
